<svg width="135" height="30" viewBox="0 0 135 30" fill="none" xmlns="http://www.w3.org/2000/svg"><title>Calibre logo</title><g id="calibre-logo">
<path fill-rule="evenodd" clip-rule="evenodd" d="M3.01557 23.579C8.11086 26.7478 11.9889 22.7082 11.9889 22.7082C10.6033 27.6615 7.41641 28.5634 7.41641 28.5634L8.13605 30H13.5806H19.0251L19.7447 28.5634C19.7447 28.5634 16.5578 27.6615 15.1723 22.7082C15.1723 22.7082 19.0503 26.7478 24.1456 23.579C29.2409 20.4102 29.1866 8.10968 13.5805 0C-2.02546 8.1098 -2.0797 20.4102 3.01557 23.579Z" fill="white"/>
<path fill-rule="evenodd" clip-rule="evenodd" d="M35.0884 15.1927C35.0884 13.5573 35.347 12.0563 35.864 10.6896C36.3811 9.32285 37.0861 8.1489 37.9792 7.16767C38.8723 6.18643 39.9357 5.42716 41.1696 4.88982C42.4034 4.35248 43.7372 4.08381 45.1708 4.08381C46.4399 4.08381 47.5915 4.26487 48.6256 4.62699C49.6597 4.98911 50.5527 5.48556 51.3048 6.11635C52.0569 6.74714 52.6738 7.51226 53.1556 8.41172C53.6374 9.31118 53.984 10.2982 54.1955 11.3729H49.7537C49.3776 10.3917 48.8312 9.59737 48.1144 8.98994C47.3976 8.38252 46.4164 8.07881 45.1708 8.07881C44.3012 8.07881 43.5257 8.25402 42.8441 8.60446C42.1625 8.9549 41.5809 9.45135 41.0991 10.0938C40.6173 10.7363 40.253 11.4897 40.0062 12.3542C39.7595 13.2186 39.6361 14.1647 39.6361 15.1927C39.6361 16.2207 39.7595 17.1668 40.0062 18.0312C40.253 18.8957 40.6173 19.6433 41.0991 20.2741C41.5809 20.9048 42.1625 21.4013 42.8441 21.7634C43.5257 22.1255 44.3012 22.3066 45.1708 22.3066C46.4164 22.3066 47.3976 22.0029 48.1144 21.3955C48.8312 20.788 49.3776 19.982 49.7537 18.9774H54.1955C53.984 20.0755 53.6374 21.0742 53.1556 21.9737C52.6738 22.8731 52.051 23.6383 51.2872 24.269C50.5234 24.8998 49.6303 25.3963 48.608 25.7584C47.5856 26.1205 46.4399 26.3016 45.1708 26.3016C43.7372 26.3016 42.4034 26.0329 41.1696 25.4956C39.9357 24.9582 38.8723 24.199 37.9792 23.2177C37.0861 22.2365 36.3811 21.0625 35.864 19.6958C35.347 18.3291 35.0884 16.8281 35.0884 15.1927V15.1927ZM65.7938 25.9511V25.1101C65.5352 25.3671 65.0476 25.6182 64.3308 25.8635C63.614 26.1088 62.8208 26.2315 61.9512 26.2315C61.1521 26.2315 60.4001 26.1205 59.695 25.8986C58.9899 25.6766 58.373 25.3496 57.8442 24.9174C57.3154 24.4851 56.8983 23.9537 56.5927 23.3229C56.2872 22.6921 56.1345 21.9678 56.1345 21.1501C56.1345 20.4025 56.2872 19.7192 56.5927 19.1001C56.8983 18.481 57.3272 17.9553 57.8795 17.5231C58.4318 17.0909 59.0781 16.7521 59.8184 16.5068C60.5587 16.2615 61.3636 16.1389 62.2332 16.1389C62.9148 16.1389 63.5963 16.2323 64.2779 16.4192C64.9595 16.6061 65.4647 16.8164 65.7938 17.05V15.8936C65.7938 15.2161 65.5881 14.6437 65.1768 14.1764C64.7656 13.7092 64.1251 13.4755 63.2556 13.4755C62.621 13.4755 62.1157 13.604 61.7397 13.861C61.3636 14.118 61.0934 14.4801 60.9289 14.9474H56.769C56.8865 14.2465 57.1274 13.5924 57.4917 12.9849C57.856 12.3775 58.326 11.846 58.9018 11.3904C59.4776 10.9349 60.1415 10.5786 60.8936 10.3216C61.6457 10.0646 62.4682 9.93612 63.3613 9.93612C65.4765 9.93612 67.1099 10.4676 68.2615 11.5306C69.4131 12.5936 69.9889 14.0713 69.9889 15.9637V25.9511H65.7938ZM65.7938 20.5544C65.7233 20.3441 65.594 20.1572 65.406 19.9937C65.218 19.8302 64.9947 19.6842 64.7362 19.5557C64.4777 19.4272 64.1956 19.3337 63.8901 19.2753C63.5846 19.2169 63.2791 19.1877 62.9735 19.1877C62.621 19.1877 62.2802 19.2227 61.9512 19.2928C61.6222 19.3629 61.3225 19.4797 61.0523 19.6433C60.782 19.8068 60.5705 20.0112 60.4177 20.2565C60.2649 20.5018 60.1886 20.788 60.1886 21.1151C60.1886 21.4656 60.2649 21.7576 60.4177 21.9912C60.5705 22.2248 60.782 22.4234 61.0523 22.587C61.3225 22.7505 61.6222 22.8673 61.9512 22.9374C62.2802 23.0075 62.621 23.0425 62.9735 23.0425C63.2791 23.0425 63.5846 23.0133 63.8901 22.9549C64.1956 22.8965 64.4777 22.8089 64.7362 22.6921C64.9947 22.5753 65.218 22.4351 65.406 22.2716C65.594 22.108 65.7233 21.9211 65.7938 21.7109V20.5544ZM77.9208 25.9512H73.5494V3.17267H77.9208V25.9512ZM86.0643 25.9512H81.6929V10.2866H86.0643V25.9512ZM86.4873 5.7659C86.4873 6.51351 86.2287 7.11509 85.7117 7.57066C85.1947 8.02623 84.5836 8.25401 83.8785 8.25401C83.197 8.25401 82.5977 8.02623 82.0806 7.57066C81.5636 7.11509 81.3051 6.51351 81.3051 5.7659C81.3051 5.04166 81.5636 4.45176 82.0806 3.99619C82.5977 3.54062 83.197 3.31284 83.8785 3.31284C84.5836 3.31284 85.1947 3.54062 85.7117 3.99619C86.2287 4.45176 86.4873 5.04166 86.4873 5.7659V5.7659ZM94.2429 25.9512H89.8715V3.17267H94.2429V11.6182C94.4074 11.408 94.6307 11.1977 94.9127 10.9874C95.1947 10.7772 95.5061 10.5961 95.8469 10.4443C96.1877 10.2924 96.5579 10.1698 96.9574 10.0763C97.3569 9.98285 97.7682 9.93613 98.1912 9.93613C99.3429 9.93613 100.359 10.1522 101.241 10.5844C102.122 11.0166 102.874 11.6065 103.497 12.3541C104.12 13.1018 104.59 13.9662 104.907 14.9474C105.224 15.9286 105.383 16.9916 105.383 18.1364C105.383 19.2578 105.224 20.3149 104.907 21.3078C104.59 22.3008 104.12 23.171 103.497 23.9186C102.874 24.6662 102.122 25.2503 101.241 25.6708C100.359 26.0913 99.3429 26.3016 98.1912 26.3016C97.7682 26.3016 97.3569 26.2549 96.9574 26.1614C96.5579 26.068 96.1877 25.9453 95.8469 25.7935C95.5061 25.6416 95.1947 25.4664 94.9127 25.2678C94.6307 25.0692 94.4074 24.8648 94.2429 24.6545V25.9512ZM94.2429 20.6946C94.5014 21.2319 94.8951 21.67 95.4239 22.0087C95.9527 22.3475 96.5579 22.5168 97.2394 22.5168C97.827 22.5168 98.3558 22.4059 98.8258 22.1839C99.2958 21.962 99.6895 21.6583 100.007 21.2728C100.324 20.8873 100.571 20.4259 100.747 19.8886C100.923 19.3512 101.011 18.7672 101.011 18.1364C101.011 17.5056 100.923 16.9215 100.747 16.3842C100.571 15.8468 100.324 15.3854 100.007 15C99.6895 14.6145 99.2958 14.3049 98.8258 14.0713C98.3558 13.8377 97.827 13.7209 97.2394 13.7209C96.5814 13.7209 95.9821 13.8902 95.4415 14.229C94.901 14.5677 94.5014 15.0058 94.2429 15.5431V20.6946ZM117.757 14.5619C117.451 14.375 117.11 14.2407 116.734 14.1589C116.358 14.0771 115.971 14.0362 115.571 14.0362C114.842 14.0362 114.202 14.2231 113.65 14.5969C113.097 14.9708 112.739 15.5198 112.574 16.244V25.9511H108.203V10.2866H112.574V11.8285C112.904 11.2678 113.385 10.8122 114.02 10.4618C114.654 10.1113 115.348 9.93612 116.1 9.93612C116.499 9.93612 116.846 9.96532 117.14 10.0237C117.434 10.0821 117.639 10.1464 117.757 10.2165V14.5619ZM134.22 20.8347C133.961 22.4935 133.233 23.8193 132.034 24.8122C130.836 25.8051 129.249 26.3016 127.275 26.3016C126.123 26.3016 125.078 26.103 124.137 25.7058C123.197 25.3087 122.392 24.748 121.723 24.0237C121.053 23.2995 120.53 22.4409 120.154 21.448C119.778 20.4551 119.59 19.3512 119.59 18.1364C119.59 16.9449 119.778 15.8527 120.154 14.8598C120.53 13.8669 121.053 13.0025 121.723 12.2665C122.392 11.5306 123.197 10.9582 124.137 10.5494C125.078 10.1405 126.088 9.93612 127.169 9.93612C128.344 9.93612 129.373 10.1289 130.254 10.5143C131.135 10.8998 131.875 11.4313 132.475 12.1088C133.074 12.7864 133.532 13.604 133.85 14.5619C134.167 15.5198 134.326 16.5711 134.326 17.7158V19.0475H123.82C123.867 19.6316 123.979 20.1572 124.155 20.6245C124.331 21.0917 124.566 21.4889 124.86 21.816C125.154 22.1431 125.506 22.3884 125.918 22.5519C126.329 22.7154 126.781 22.7972 127.275 22.7972C128.004 22.7972 128.626 22.6337 129.143 22.3066C129.66 21.9795 130.001 21.4889 130.166 20.8347H134.22ZM127.204 13.4405C126.781 13.4405 126.394 13.5106 126.041 13.6508C125.689 13.7909 125.371 13.9837 125.089 14.229C124.807 14.4743 124.566 14.778 124.367 15.1401C124.167 15.5022 124.02 15.9286 123.926 16.4192H130.06C130.036 15.9987 129.966 15.6074 129.848 15.2453C129.731 14.8831 129.549 14.5677 129.302 14.2991C129.055 14.0304 128.761 13.8201 128.421 13.6683C128.08 13.5164 127.674 13.4405 127.204 13.4405V13.4405Z" fill="white"/></g>
</svg>
